<svg width="50" height="50" viewBox="0 0 50 50" fill="none" xmlns="http://www.w3.org/2000/svg">
<g clip-path="url(#clip0_2363_4215)">
<rect width="50" height="50.0023" rx="25" fill="#F0F1F4"/>
<path d="M23.3037 7.39131H39.9997V24.0873H23.3037V7.39131Z" fill="#FFC700"/>
<path d="M23.3037 24.0873H35.8257V36.6093H23.3037V24.0873Z" fill="#D5EB97"/>
<path fill-rule="evenodd" clip-rule="evenodd" d="M25.2069 29.7885C26.2396 30.2049 27.6527 30.3918 28.7831 30.5331C27.7396 31.6418 27.0452 32.5094 26.7016 33.1745C26.5598 33.4489 26.3947 34.1262 26.7722 34.3485C27.2822 34.6486 28.0533 34.0519 28.332 33.7126C28.6886 33.3029 29.3809 32.2831 30.044 30.9896C30.4571 32.1907 30.9265 33.118 31.218 33.6038C31.6419 34.3103 32.2214 34.5508 32.5115 34.3593C32.7996 34.169 32.7536 33.7332 32.6637 33.4788C32.3757 32.6636 31.8321 31.6907 31.3321 30.919C32.7148 31.2156 33.479 31.395 33.9408 31.3538C34.4468 31.3088 34.658 31.0964 34.6963 30.8701C34.7593 30.4978 34.2371 30.306 33.9738 30.2049C33.4779 30.0144 32.7518 29.7183 31.4571 29.4461C32.055 28.9026 32.3267 28.7124 32.9463 27.7559C33.2839 27.2347 33.5412 26.2729 33.2067 26.0337C32.7221 25.6873 32.1419 26.196 31.7941 26.6091C31.1578 27.3647 30.8484 28.0005 30.4028 28.8483C30.0672 27.9377 29.6608 26.9133 28.9462 26.0337C28.6185 25.6303 28.1362 25.2393 27.7505 25.5113C27.3053 25.8253 27.4734 26.4515 27.6472 26.8645C28.041 27.7997 28.3375 28.1689 29.0984 29.0983C27.8918 28.7287 27.033 28.533 25.5222 28.533C25.2124 28.533 24.7101 28.7029 24.6634 28.9787C24.6178 29.2483 24.7147 29.5384 25.2069 29.7885Z" fill="black"/>
<path d="M10.7822 18.522H23.3042V31.044H10.7822V18.522Z" fill="#F697F9"/>
<path d="M23.3042 37.3049C23.3042 40.7628 20.5011 43.5659 17.0432 43.5659C13.5854 43.5659 10.7822 40.7628 10.7822 37.3049C10.7822 33.8471 13.5854 31.044 17.0432 31.044C20.5011 31.044 23.3042 33.8471 23.3042 37.3049Z" fill="#A259FF"/>
<path d="M27.1316 17.8623C27.0663 18.1762 26.9412 18.4945 26.5722 18.522C26.1346 18.513 25.934 18.0365 25.8494 17.6723C25.6097 16.6409 25.779 14.8196 25.8494 13.5823C25.1051 13.6362 20.7729 13.2989 19.7466 12.9963C19.4218 12.9005 19.0712 12.6573 19.1198 12.2791C19.1815 11.9209 19.4672 11.7678 19.7953 11.6929C20.5163 11.5282 23.1794 11.5559 24.0002 11.5959C24.1091 11.5959 26.8295 11.7431 27.1661 12.1004C27.4877 12.4418 27.5192 13.6399 27.4453 14.9253C27.3894 15.8965 27.3309 16.905 27.1316 17.8623Z" fill="black"/>
<path d="M10.087 15.7394C10.087 10.8697 19.676 9.30804 22.785 9.43495C23.6024 9.43495 25.3794 9.59594 26.9859 10.1757C28.486 10.717 30.4244 12.3589 31.2831 11.4893C32.3986 10.3598 29.5616 8.79648 28.2153 8.3668C26.6586 7.87 24.5781 7.53373 21.7171 7.53373C17.0837 7.59914 8 9.72021 8 15.7394C8 22.9379 20.0635 22.6961 23.3047 22.6961C29.5656 22.6961 37.1448 20.7871 37.218 14.3481C37.2819 8.7276 31.2404 5.9934 26.0873 6.00001C20.1525 6.00001 12.8697 8.08701 12.8697 13.6524C12.8697 16.435 15.2018 17.7504 17.7394 17.8264C23.3047 17.8264 26.7395 14.0003 26.7395 14.0003L25.5873 12.8915C25.5873 12.8915 20.8263 15.7394 17.7394 15.7394C15.9042 15.8342 14.9567 15.2684 14.9567 13.6524C14.9567 8.68604 22.4021 8.93237 25.8482 8.73927C30.2341 8.49355 35.131 9.95545 35.131 14.3481C35.131 20.109 25.3917 20.6091 23.3047 20.6091C21.4766 20.6091 10.087 20.6091 10.087 15.7394Z" fill="black"/>
<path d="M23.3037 7.39131H39.9997V24.0873H23.3037V7.39131Z" fill="#FFC700"/>
<path d="M23.3037 24.0873H35.8257V36.6093H23.3037V24.0873Z" fill="#D5EB97"/>
<path fill-rule="evenodd" clip-rule="evenodd" d="M25.2069 29.7885C26.2396 30.2049 27.6527 30.3918 28.7831 30.5331C27.7396 31.6418 27.0452 32.5094 26.7016 33.1745C26.5598 33.4489 26.3947 34.1262 26.7722 34.3485C27.2822 34.6486 28.0533 34.0519 28.332 33.7126C28.6886 33.3029 29.3809 32.2831 30.044 30.9896C30.4571 32.1907 30.9265 33.118 31.218 33.6038C31.6419 34.3103 32.2214 34.5508 32.5115 34.3593C32.7996 34.169 32.7536 33.7332 32.6637 33.4788C32.3757 32.6636 31.8321 31.6907 31.3321 30.919C32.7148 31.2156 33.479 31.395 33.9408 31.3538C34.4468 31.3088 34.658 31.0964 34.6963 30.8701C34.7593 30.4978 34.2371 30.306 33.9738 30.2049C33.4779 30.0144 32.7518 29.7183 31.4571 29.4461C32.055 28.9026 32.3267 28.7124 32.9463 27.7559C33.2839 27.2347 33.5412 26.2729 33.2067 26.0337C32.7221 25.6873 32.1419 26.196 31.7941 26.6091C31.1578 27.3647 30.8484 28.0005 30.4028 28.8483C30.0672 27.9377 29.6608 26.9133 28.9462 26.0337C28.6185 25.6303 28.1362 25.2393 27.7505 25.5113C27.3053 25.8253 27.4734 26.4515 27.6472 26.8645C28.041 27.7997 28.3375 28.1689 29.0984 29.0983C27.8918 28.7287 27.033 28.533 25.5222 28.533C25.2124 28.533 24.7101 28.7029 24.6634 28.9787C24.6178 29.2483 24.7147 29.5384 25.2069 29.7885Z" fill="black"/>
<path d="M10.7822 18.522H23.3042V31.044H10.7822V18.522Z" fill="#F697F9"/>
<path d="M23.3042 37.3049C23.3042 40.7628 20.5011 43.5659 17.0432 43.5659C13.5854 43.5659 10.7822 40.7628 10.7822 37.3049C10.7822 33.8471 13.5854 31.044 17.0432 31.044C20.5011 31.044 23.3042 33.8471 23.3042 37.3049Z" fill="#A259FF"/>
<path d="M27.1316 17.8623C27.0663 18.1762 26.9412 18.4945 26.5722 18.522C26.1346 18.513 25.934 18.0365 25.8494 17.6723C25.6097 16.6409 25.779 14.8196 25.8494 13.5823C25.1051 13.6362 20.7729 13.2989 19.7466 12.9963C19.4218 12.9005 19.0712 12.6573 19.1198 12.2791C19.1815 11.9209 19.4672 11.7678 19.7953 11.6929C20.5163 11.5282 23.1794 11.5559 24.0002 11.5959C24.1091 11.5959 26.8295 11.7431 27.1661 12.1004C27.4877 12.4418 27.5192 13.6399 27.4453 14.9253C27.3894 15.8965 27.3309 16.905 27.1316 17.8623Z" fill="black"/>
<path d="M10.087 15.7394C10.087 10.8697 19.676 9.30804 22.785 9.43495C23.6024 9.43495 25.3794 9.59594 26.9859 10.1757C28.486 10.717 30.4244 12.3589 31.2831 11.4893C32.3986 10.3598 29.5616 8.79648 28.2153 8.3668C26.6586 7.87 24.5781 7.53373 21.7171 7.53373C17.0837 7.59914 8 9.72021 8 15.7394C8 22.9379 20.0635 22.6961 23.3047 22.6961C29.5656 22.6961 37.1448 20.7871 37.218 14.3481C37.2819 8.7276 31.2404 5.9934 26.0873 6.00001C20.1525 6.00001 12.8697 8.08701 12.8697 13.6524C12.8697 16.435 15.2018 17.7504 17.7394 17.8264C23.3047 17.8264 26.7395 14.0003 26.7395 14.0003L25.5873 12.8915C25.5873 12.8915 20.8263 15.7394 17.7394 15.7394C15.9042 15.8342 14.9567 15.2684 14.9567 13.6524C14.9567 8.68604 22.4021 8.93237 25.8482 8.73927C30.2341 8.49355 35.131 9.95545 35.131 14.3481C35.131 20.109 25.3917 20.6091 23.3047 20.6091C21.4766 20.6091 10.087 20.6091 10.087 15.7394Z" fill="black"/>
</g>
<defs>
<clipPath id="clip0_2363_4215">
<rect width="50" height="50" fill="white"/>
</clipPath>
</defs>
</svg>
