<svg width="50" height="50" viewBox="0 0 50 50" fill="none" xmlns="http://www.w3.org/2000/svg">
<g clip-path="url(#clip0_2363_4175)">
<path d="M24.9951 24.9933C24.9951 21.1679 28.0961 18.0667 31.9214 18.0667C35.7466 18.0667 38.8476 21.1679 38.8476 24.9933C38.8476 28.8188 35.7466 31.9199 31.9214 31.9199C28.0961 31.9199 24.9951 28.8188 24.9951 24.9933Z" fill="#1ABCFE"/>
<path d="M11.1436 38.8466C11.1436 35.0212 14.2445 31.92 18.0698 31.92H24.9961V38.8466C24.9961 42.6721 21.8951 45.7732 18.0698 45.7732C14.2445 45.7732 11.1436 42.6721 11.1436 38.8466Z" fill="#0ACF83"/>
<path d="M24.9951 4.21365V18.0668H31.9214C35.7467 18.0668 38.8476 14.9657 38.8476 11.1402C38.8476 7.31479 35.7467 4.21365 31.9214 4.21365H24.9951Z" fill="#FF7262"/>
<path d="M11.1436 11.1402C11.1436 14.9657 14.2445 18.0668 18.0698 18.0668H24.9961V4.21365H18.0698C14.2445 4.21365 11.1436 7.31478 11.1436 11.1402Z" fill="#F24E1E"/>
<path d="M11.1436 24.9933C11.1436 28.8188 14.2445 31.9199 18.0698 31.9199H24.9961V18.0667H18.0698C14.2445 18.0667 11.1436 21.1679 11.1436 24.9933Z" fill="#A259FF"/>
</g>
<defs>
<clipPath id="clip0_2363_4175">
<rect width="27.99" height="41.9869" fill="white" transform="translate(11 4)"/>
</clipPath>
</defs>
</svg>
