<svg width="50" height="50" viewBox="0 0 50 50" fill="none" xmlns="http://www.w3.org/2000/svg">
<g clip-path="url(#clip0_2363_4444)">
<path d="M11.9667 2H38.0333C43.4958 2 48 6.50417 48 11.9667V38.0333C48 43.4958 43.4958 48 38.0333 48H11.9667C6.50417 48 2 43.4958 2 38.0333V11.9667C2 6.50417 6.50417 2 11.9667 2Z" fill="#FFD02F"/>
<path fill-rule="evenodd" clip-rule="evenodd" d="M33.9122 7.7506H28.833L33.0497 15.1298L23.8497 7.7506H18.7705L23.3705 16.7589L13.7872 7.7506H8.70801L13.7872 19.2506L8.70801 42.2506H13.7872L23.4663 17.6214L18.7705 42.2506H23.8497L33.1455 15.9923L28.9288 42.2506H34.008L43.208 13.5006L33.9122 7.7506Z" fill="#050038"/>
</g>
<defs>
<clipPath id="clip0_2363_4444">
<rect x="2" y="2" width="46" height="46" rx="23" fill="white"/>
</clipPath>
</defs>
</svg>
