<svg width="50" height="50" viewBox="0 0 50 50" fill="none" xmlns="http://www.w3.org/2000/svg">
<g clip-path="url(#clip0_2363_4196)">
<path d="M12.6384 6.31631L25.0892 5L37.5401 6.31631L47.1794 19.2563L25.0892 44.9801L2.99902 19.2563L12.6384 6.31631Z" fill="#FDB300"/>
<path d="M11.9467 19.2603L25.0892 44.9841L2.99902 19.2603H11.9467Z" fill="#EA6C00"/>
<path d="M38.232 19.2603L25.0895 44.9841L47.1797 19.2603H38.232Z" fill="#EA6C00"/>
<path d="M11.9473 19.2603H38.2324L25.0898 44.9841L11.9473 19.2603Z" fill="#FDAD00"/>
<path d="M25.0889 5L12.638 6.31629L11.9463 19.2563L25.0889 5Z" fill="#FDD231"/>
<path d="M25.0889 5L37.5398 6.31629L38.2314 19.2563L25.0889 5Z" fill="#FDD231"/>
<path d="M47.1797 19.2555L37.5403 6.31552L38.232 19.2555H47.1797Z" fill="#FDAD00"/>
<path d="M2.99902 19.2555L12.6383 6.31552L11.9467 19.2555H2.99902Z" fill="#FDAD00"/>
<path d="M25.0889 5L11.9463 19.2563H38.2315L25.0889 5Z" fill="#FEEEB7"/>
</g>
<defs>
<clipPath id="clip0_2363_4196">
<rect width="44.2697" height="40" fill="white" transform="translate(3 5)"/>
</clipPath>
</defs>
</svg>
