<svg width="50" height="50" viewBox="0 0 50 50" fill="none" xmlns="http://www.w3.org/2000/svg">
<path d="M20.5098 13.5668C20.6412 13.5406 20.7463 13.5143 20.8777 13.5143L21.0091 13.5668C20.8514 13.5668 20.6675 13.5668 20.5098 13.5668Z" fill="#A665D2"/>
<path d="M25.1346 48.865C38.3149 48.865 48.9996 38.1802 48.9996 24.9999C48.9996 11.8196 38.3149 1.1349 25.1346 1.1349C11.9543 1.1349 1.26953 11.8196 1.26953 24.9999C1.26953 38.1802 11.9543 48.865 25.1346 48.865Z" fill="#7A12CD"/>
<path d="M28.7345 13.5931C29.0761 13.5142 29.4441 13.5668 29.7332 13.7508C30.2063 14.145 30.6006 14.5918 31.0474 15.0124C31.6519 15.6169 32.2564 16.2214 32.8609 16.8259C33.2026 17.0887 33.4391 17.4304 33.7808 17.7195C34.0962 18.1401 34.543 18.4292 34.8584 18.8234C35.1475 19.0862 35.4367 19.3491 35.6732 19.6382C36.3303 20.2164 36.8559 20.8998 37.5393 21.4517C37.9335 21.9248 38.3804 22.3454 38.8009 22.7659C39.274 23.239 39.7471 23.7121 40.2202 24.2115C40.2727 24.3429 40.3516 24.5006 40.4042 24.632C40.4042 24.7897 40.4042 24.9737 40.4042 25.1314C40.3253 25.3679 40.1939 25.5782 40.0362 25.7622C36.672 29.1264 33.3077 32.4906 29.9172 35.8811C29.7332 36.0126 29.5492 36.1177 29.339 36.1965C29.155 36.1965 28.9973 36.1965 28.8133 36.1965C28.603 36.1177 28.4191 36.0126 28.2351 35.8811C27.4992 35.1452 26.7369 34.383 26.001 33.6471C25.7645 33.4105 25.5279 33.1477 25.2651 32.9112C25.1337 32.7797 25.0285 32.6483 24.8971 32.5432L24.8446 32.4906C24.2926 31.9387 23.767 31.3867 23.215 30.8611C23.1624 30.8085 23.1099 30.7559 23.0573 30.7034C22.1111 29.7572 21.1912 28.8373 20.245 27.8911C19.5617 27.1814 18.852 26.4981 18.1424 25.7884C17.9584 25.6045 17.827 25.3942 17.7744 25.1576C17.7744 24.9999 17.7744 24.8685 17.7744 24.7108C17.8795 24.2377 18.2738 23.8961 18.5892 23.5807C18.8257 23.3178 19.0886 23.0813 19.3251 22.8447C19.9033 22.2928 20.429 21.6883 21.0072 21.1363C21.7169 20.4793 22.3477 19.7959 23.031 19.1125C23.0836 19.06 23.1362 19.0337 23.1887 19.0074C23.7407 18.4555 24.3189 17.9298 24.8183 17.3516L24.8971 17.2727C25.5016 16.6156 26.1587 16.0111 26.7895 15.3803C27.4203 14.8021 27.946 14.0925 28.6819 13.6719" fill="#FFFEFF"/>
<path d="M19.7209 14.1188C19.9311 13.8822 20.1939 13.6982 20.5093 13.5931C20.667 13.5931 20.851 13.5931 21.0087 13.5931C21.4818 13.7245 21.7709 14.0925 22.0863 14.4079C22.6646 14.9861 23.2428 15.5643 23.821 16.1426C23.6108 16.3003 23.4268 15.8009 23.2165 15.9849C23.0062 16.1688 22.8223 16.3791 22.6383 16.5894C22.5331 16.6945 22.3754 16.7208 22.3229 16.8522C22.244 17.0625 22.0075 17.115 21.8498 17.2727C21.8235 17.3516 21.9549 17.3516 21.9812 17.4041L21.9549 17.667C21.6395 17.3779 21.3504 17.0362 21.0087 16.7471C20.8773 16.6945 20.6408 16.6419 20.5356 16.7471C17.9599 19.244 15.463 21.8197 12.9135 24.3429C12.8084 24.4743 12.6244 24.5532 12.6244 24.7371C12.5719 24.9737 12.6507 25.2365 12.8347 25.4205C13.3078 25.8936 13.7809 26.3667 14.254 26.8398C15.3841 27.97 16.5143 29.1001 17.6445 30.2303C18.5118 31.0976 19.3792 31.9387 20.2202 32.806C20.3779 33.0163 20.6408 33.1214 20.9036 33.0952C21.3241 32.9375 21.587 32.5169 21.9286 32.2278C21.9812 32.3067 21.9286 32.4118 21.9286 32.5169C21.7972 32.5432 21.6395 32.6483 21.6921 32.806C21.7709 33.0163 21.4293 32.806 21.3504 32.9637C21.3241 33.0689 21.4293 33.1214 21.4555 33.2003C21.2453 33.2266 20.9562 33.0689 20.851 33.3054C20.7196 33.358 20.6408 33.2266 20.5356 33.2003C20.194 33.3054 20.2991 32.8849 20.0625 32.8586C19.826 32.7535 19.7734 32.4118 19.4843 32.3592C19.274 32.3067 19.3266 32.0175 19.1689 31.9387C19.0375 31.8598 18.9061 31.7284 18.8272 31.5707C18.7747 31.413 18.5644 31.6496 18.5381 31.4393C18.4593 31.1239 18.1702 30.9925 18.0125 30.756C17.9073 30.6508 17.6971 30.6771 17.6445 30.4931C17.6182 30.3617 17.5131 30.2566 17.3817 30.204C17.2502 30.02 17.1188 29.7835 16.856 29.7835C16.672 29.8098 16.6983 29.5732 16.6983 29.4418C16.4092 29.363 16.3566 29.0476 16.1201 28.9161C16.0149 28.9424 15.8572 28.8899 15.7784 29.0213C15.7784 29.0738 15.8047 29.1527 15.7521 29.2315C15.6995 29.2053 15.647 29.179 15.5944 29.1527C15.279 29.4944 14.911 29.8361 14.5957 30.1777C14.5694 30.4931 14.9373 30.6508 15.1213 30.9137C15.1476 31.0451 15.279 30.9925 15.3579 30.9925C15.4367 31.1502 15.5156 31.3342 15.6207 31.4919C15.8572 31.6233 15.9887 31.8598 16.1989 31.965C16.3566 32.2541 16.5932 32.5169 16.8823 32.7009C16.9611 32.7535 17.0663 32.8323 17.1188 32.9375C17.2502 32.99 17.4342 32.9375 17.3291 33.2003C17.4079 33.3054 17.5131 33.4105 17.6182 33.5157C17.881 33.4105 17.8548 33.6208 17.881 33.7259C17.9599 33.8574 18.2753 33.6997 18.1702 34.0151C18.3279 34.2516 18.617 34.3567 18.7484 34.5933C18.9849 34.7247 19.0638 34.9875 19.274 35.119C19.4843 35.2504 19.6683 35.4343 19.7997 35.6446C19.9574 35.7497 20.0888 35.8812 20.2202 36.0126C20.4831 36.0126 20.7722 36.0651 21.035 36.1177C21.2453 36.0651 21.2978 35.776 21.4818 35.6972C21.7184 35.6183 21.7972 35.3555 22.0075 35.2241C22.1126 35.1715 22.0601 35.0138 22.1389 34.935L22.428 34.9875C22.244 35.2766 21.9549 35.4343 21.7447 35.7235C21.5344 35.9863 21.2453 36.1703 20.9299 36.2754H20.4568C20.2202 36.1966 20.01 36.0651 19.826 35.9337C19.5369 35.592 19.1689 35.3292 18.8798 34.9613C18.8535 34.9087 18.8009 34.8824 18.7484 34.8561C18.433 34.5144 18.0913 34.1728 17.7496 33.8574C17.4605 33.5157 17.0663 33.2266 16.7771 32.8849C16.4618 32.4906 16.0149 32.2278 15.7258 31.8073C15.647 31.7021 15.5156 31.6496 15.4367 31.5444C14.8585 30.9925 14.3328 30.3354 13.702 29.836C13.3866 29.4418 12.9661 29.1001 12.5981 28.7322C12.2565 28.2853 11.8096 27.97 11.4417 27.5757C11.284 27.4443 11.1789 27.2603 11.0212 27.1552C10.9949 27.1026 10.9423 27.0238 10.8897 26.9975C10.4955 26.6821 10.2064 26.2353 9.78585 25.9199C9.60187 25.7622 9.47045 25.5519 9.3916 25.3154C9.3916 25.1314 9.41788 24.9474 9.3916 24.7634C9.44417 24.5531 9.5493 24.3692 9.68072 24.1852C13.0975 20.7421 16.4092 17.4304 19.7209 14.1188Z" fill="#E3CCF4"/>
<path d="M23.216 15.9849C23.4262 15.8009 23.6365 16.3003 23.8205 16.1426C23.9519 16.2477 24.057 16.3791 24.1884 16.5105V16.5631H24.1359C24.0307 16.458 23.9256 16.3791 23.8205 16.3003C23.6102 16.3003 23.5314 16.5105 23.4262 16.642C23.2948 16.8259 23.1371 16.9836 22.9531 17.0888C22.7429 17.3253 22.5326 17.5619 22.3223 17.7721C22.3223 17.851 22.3223 17.9298 22.2961 17.9824C22.1909 17.8773 22.0858 17.7721 21.9807 17.667L22.0069 17.4042C21.9807 17.3516 21.8492 17.3516 21.8755 17.2727C22.0332 17.1413 22.2698 17.0625 22.3486 16.8522C22.4012 16.7208 22.5589 16.6945 22.664 16.5894C22.8217 16.3528 23.0057 16.1689 23.216 15.9849Z" fill="#D9C4EB"/>
<path d="M23.3997 16.642C23.5048 16.5106 23.61 16.3003 23.7939 16.3003C23.8991 16.3792 24.0305 16.458 24.1093 16.5631C23.8202 16.5894 23.7151 16.8523 23.5048 16.9837C23.3209 17.1414 23.1632 17.2991 23.0055 17.4831C22.8215 17.6933 22.5324 17.851 22.4798 18.1664C22.4009 18.1138 22.3221 18.035 22.2695 17.9824C22.2958 17.9036 22.2958 17.8247 22.2958 17.7722C22.5324 17.5619 22.7163 17.3254 22.9266 17.0888C23.1369 16.9574 23.2946 16.826 23.3997 16.642Z" fill="#D0BCE0"/>
<path d="M24.1885 16.5106C24.4513 16.7208 24.6616 17.0362 24.977 17.2202L24.8981 17.2991C24.793 17.2202 24.7141 17.1151 24.609 17.0362C24.5827 17.0099 24.5827 17.0099 24.5564 16.9837C24.5039 16.9311 24.4513 16.8785 24.3987 16.826L24.2936 16.7208L24.1885 16.5631V16.5106Z" fill="#D7B0F8"/>
<path d="M23.5318 16.9836C23.7421 16.8522 23.8472 16.5894 24.1363 16.5631H24.1889L24.294 16.7208C24.2152 16.7471 24.11 16.7734 24.0312 16.7997C23.6369 17.2728 23.1901 17.6407 22.7959 18.0875C22.7433 18.1664 22.717 18.2452 22.6907 18.3241C22.6382 18.2715 22.5593 18.2189 22.4805 18.1927V18.1664C22.533 17.851 22.8221 17.6933 23.0061 17.483C23.1638 17.299 23.3478 17.1151 23.5318 16.9836Z" fill="#C7B5D7"/>
<path d="M20.5098 16.7208C20.6412 16.6157 20.8777 16.6682 20.9829 16.7208C20.8252 16.7208 20.6675 16.7208 20.5098 16.7208Z" fill="#BB85E0"/>
<path d="M24.03 16.7997C24.1088 16.7734 24.1877 16.7471 24.2928 16.7208L24.3979 16.8259C24.2665 16.8785 24.1351 16.9048 24.0825 17.0625C23.7146 17.5356 23.2152 17.8773 22.821 18.3504C22.821 18.4029 22.821 18.4555 22.8472 18.5081C22.7947 18.4555 22.7421 18.4029 22.7158 18.3504C22.7421 18.2715 22.7684 18.1927 22.821 18.1138C23.1889 17.6407 23.662 17.2465 24.03 16.7997Z" fill="#BFAECD"/>
<path d="M24.0839 17.0362C24.1364 16.9048 24.2941 16.8522 24.3993 16.7997C24.4518 16.8522 24.5044 16.9048 24.557 16.9574C24.0313 17.1676 23.7685 17.7458 23.2954 18.0612C23.1639 18.2189 22.9274 18.3504 22.9537 18.5869L22.8486 18.4818C22.8486 18.4292 22.8223 18.3766 22.8223 18.3241C23.2165 17.851 23.7159 17.5093 24.0839 17.0362Z" fill="#B7A7C5"/>
<path d="M23.2949 18.0612C23.768 17.7458 24.0308 17.1939 24.5565 16.9574C24.5827 16.9836 24.5827 16.9836 24.609 17.0099C24.3462 17.299 24.0571 17.5881 23.7942 17.851C23.5577 18.0087 23.4263 18.2978 23.1897 18.4555C23.1109 18.5081 23.1372 18.6132 23.1109 18.7183C23.0583 18.6658 23.0058 18.6132 22.9532 18.5606C22.9269 18.3504 23.1635 18.2452 23.2949 18.0612Z" fill="#AF9FBC"/>
<path d="M23.7938 17.8773C24.0566 17.5881 24.3457 17.3253 24.6086 17.0362C24.7137 17.1151 24.7926 17.2202 24.8977 17.299C24.3983 17.8773 23.7938 18.4029 23.2681 18.9549C23.2419 18.876 23.1893 18.8235 23.1367 18.7446C23.163 18.6658 23.1367 18.5343 23.2156 18.4818C23.4258 18.2978 23.5572 18.035 23.7938 17.8773Z" fill="#A79AB2"/>
<path d="M22.5059 18.1927C22.5847 18.219 22.6373 18.2715 22.7161 18.3241C22.7687 18.3767 22.8213 18.4292 22.8475 18.4818L22.9527 18.5869C23.0052 18.6395 23.0578 18.6921 23.1104 18.7446C23.1629 18.7972 23.2155 18.8761 23.2418 18.9549C23.1892 19.0075 23.1367 19.0338 23.0841 19.06C23.0841 19.0075 23.1104 18.9549 23.1104 18.9023C22.9264 18.6658 22.5847 18.5081 22.5059 18.1927Z" fill="#702EA5"/>
<path d="M9.41797 24.6846L9.47054 24.632C9.47054 24.816 9.47054 25 9.47054 25.184C9.47054 25.1577 9.44425 25.1051 9.41797 25.0789C9.41797 24.9737 9.41797 24.7635 9.41797 24.6846Z" fill="#B981E5"/>
<path d="M40.4316 24.632C40.4842 24.7897 40.4842 24.9737 40.4316 25.1314C40.4316 24.9474 40.4316 24.7897 40.4316 24.632Z" fill="#A063D0"/>
<path d="M9.41674 25.0525C9.31161 24.9474 9.31161 24.7897 9.41674 24.6846C9.41674 24.7634 9.41674 24.9737 9.41674 25.0525Z" fill="#8030C6"/>
<path d="M17.7744 24.6583L17.8007 24.6846C17.8007 24.8423 17.8007 24.9737 17.8007 25.1314C17.7744 24.9737 17.7744 24.816 17.7744 24.6583Z" fill="#A569DC"/>
<path d="M15.7778 28.995C15.8304 28.8636 15.9881 28.9162 16.1195 28.8899C16.356 29.0213 16.4086 29.363 16.6977 29.4155C16.6714 29.547 16.6714 29.7835 16.8554 29.7572C17.1182 29.7309 17.2497 29.9938 17.3811 30.1777C17.5125 30.2303 17.6176 30.3354 17.6439 30.4669C17.6702 30.6508 17.9067 30.6246 18.0119 30.7297C18.1958 30.9662 18.485 31.0977 18.5375 31.4131C18.5638 31.597 18.7741 31.3868 18.8266 31.5445C18.9055 31.7022 19.0106 31.8073 19.1683 31.9124C19.3523 31.9913 19.2735 32.2804 19.4837 32.333C19.7465 32.3855 19.7991 32.7272 20.0619 32.8323C20.2985 32.8586 20.1934 33.2792 20.535 33.174C20.6402 33.2003 20.7453 33.3317 20.8504 33.2792C20.9556 33.0426 21.2447 33.2003 21.4549 33.174C21.4287 33.0952 21.3235 33.0163 21.3498 32.9375C21.4287 32.7798 21.7703 32.99 21.6915 32.7798C21.6126 32.6221 21.7966 32.5432 21.928 32.4907C21.9018 32.6746 22.112 32.7272 22.2172 32.8586C22.4274 33.174 22.7165 33.4369 23.0319 33.6208C23.1371 33.6997 23.1633 33.8574 23.2159 33.9625C23.4525 33.9362 23.6102 33.726 23.7941 33.5945L23.873 33.6471C23.3999 34.0414 23.0056 34.5407 22.5588 34.9087L22.2697 34.8561C22.1909 34.935 22.2434 35.0927 22.1383 35.1453C21.928 35.2767 21.8492 35.5395 21.6126 35.6183C21.4287 35.7235 21.3761 35.9863 21.1658 36.0389C20.903 35.9863 20.6139 35.96 20.3511 35.9337C20.2196 35.8023 20.0882 35.6709 19.9305 35.5658C19.7991 35.3555 19.6151 35.1715 19.4049 35.0401C19.1946 34.9087 19.0895 34.6196 18.8792 34.5145C18.7478 34.2779 18.4587 34.1465 18.301 33.9362C18.4061 33.6208 18.117 33.7785 18.0119 33.6471C17.9593 33.5157 18.0119 33.3054 17.749 33.4369C17.6439 33.358 17.5388 33.2529 17.4336 33.1215C17.5388 32.8586 17.3285 32.8849 17.2234 32.8586C17.1445 32.7798 17.0657 32.7009 16.9868 32.6221C16.6977 32.4381 16.4612 32.1753 16.3035 31.8861C16.0669 31.781 15.9355 31.5445 15.7252 31.4131C15.6201 31.2554 15.5413 31.0977 15.4624 30.9137C15.3573 30.9137 15.2521 30.9662 15.2259 30.8348C15.0682 30.5983 14.7002 30.4406 14.7002 30.0989C15.0156 29.7572 15.3836 29.4155 15.699 29.0739C15.7515 29.1001 15.8041 29.1264 15.8566 29.1527C15.8304 29.1527 15.8041 29.0739 15.7778 28.995Z" fill="#E3CFF2"/>
<path d="M23.0851 30.6771C23.1377 30.7297 23.1903 30.7823 23.2428 30.8348L23.164 30.94C23.0851 31.0188 23.0063 31.0714 22.9537 31.1502L22.9011 31.2028C22.8486 31.2554 22.796 31.3079 22.7434 31.3605L22.6383 31.4656C22.5857 31.5182 22.5332 31.5708 22.4806 31.6233C22.428 31.6759 22.3229 31.7547 22.2703 31.8336L22.2178 31.8599C22.2178 31.7547 22.2703 31.6759 22.3229 31.597C22.5857 31.3342 22.8486 31.0977 23.0851 30.8348C23.0851 30.756 23.0851 30.7034 23.0851 30.6771Z" fill="#68219F"/>
<path d="M23.2419 30.8348C23.7939 31.3868 24.3458 31.9387 24.8715 32.4644L24.7138 32.5958C24.5035 32.4644 24.3458 32.2541 24.1618 32.0964C23.8202 31.8336 23.6362 31.4656 23.2945 31.2028L23.1631 30.8874C23.1631 30.9137 23.2419 30.8348 23.2419 30.8348Z" fill="#A195AB"/>
<path d="M22.9531 31.1502C23.032 31.0714 23.0845 30.9926 23.1634 30.94L23.2948 31.2554C23.6102 31.5182 23.8205 31.8862 24.1621 32.149C24.3461 32.3067 24.5038 32.4907 24.7141 32.6484L24.609 32.7535C24.425 32.6484 24.2936 32.5433 24.1621 32.3856C23.7153 31.965 23.3999 31.4919 22.9531 31.1502Z" fill="#A999B5"/>
<path d="M22.9014 31.1765L22.9539 31.124C23.4007 31.4919 23.7161 31.965 24.163 32.333C24.2944 32.4907 24.4258 32.6221 24.6098 32.7009L24.4521 32.8586C24.0053 32.4118 23.5059 31.9913 23.0853 31.4919C23.0065 31.4131 22.9277 31.3079 22.9014 31.1765Z" fill="#B0A2BC"/>
<path d="M22.7422 31.3342C22.7948 31.2817 22.8473 31.2291 22.8999 31.1765C22.9262 31.308 22.9787 31.4131 23.0839 31.4919C23.5044 31.9913 24.0038 32.3856 24.4506 32.8587L24.3717 32.9638L24.3455 32.9901C23.7935 32.5695 23.3467 32.0176 22.8473 31.5445C22.7948 31.4656 22.7685 31.4131 22.7422 31.3342Z" fill="#B9A8C5"/>
<path d="M22.6377 31.4394L22.7428 31.3342C22.7691 31.3868 22.7954 31.4657 22.848 31.5182C23.3736 31.9913 23.7942 32.5695 24.3461 32.9638C24.2935 33.0164 24.241 33.0426 24.1884 33.0952C23.689 32.6221 23.1896 32.149 22.7165 31.6496C22.6377 31.6233 22.664 31.5182 22.6377 31.4394Z" fill="#C1B0CE"/>
<path d="M22.4803 31.5971C22.5329 31.5445 22.5854 31.4919 22.638 31.4394C22.6643 31.5182 22.638 31.5971 22.6906 31.6496C23.1637 32.149 23.663 32.6221 24.1624 33.0952C24.031 33.174 23.8733 33.1215 23.7419 33.1478C23.4002 32.6221 22.8483 32.2541 22.4277 31.781C22.4803 31.7285 22.5066 31.6759 22.4803 31.5971Z" fill="#C9B7D7"/>
<path d="M22.2699 31.8336C22.3487 31.7547 22.4013 31.6759 22.4802 31.6233C22.5064 31.6759 22.4539 31.7285 22.4539 31.8073C22.8744 32.2804 23.4263 32.6484 23.768 33.174C23.8994 33.174 24.0571 33.2003 24.1886 33.1215C24.2411 33.0689 24.2937 33.0426 24.3463 32.99L24.3725 32.9638L24.3988 33.0689C24.2937 33.174 24.1886 33.2792 24.0834 33.3843L24.0571 33.2792C23.9257 33.358 23.8206 33.4631 23.7155 33.542C23.4263 33.174 23.0321 32.9375 22.743 32.5958C22.6116 32.333 22.2436 32.1753 22.2699 31.8336Z" fill="#D0BDE0"/>
<path d="M22.218 31.8599L22.2706 31.8336C22.2443 32.1753 22.6123 32.333 22.7437 32.5958C23.0328 32.9638 23.4271 33.2003 23.7162 33.542C23.8476 33.4632 23.9527 33.358 24.0841 33.2792L24.1104 33.3843C24.0316 33.4894 23.9527 33.5683 23.8476 33.6471L23.7687 33.5946C23.5848 33.726 23.4533 33.9363 23.1905 33.9625C23.138 33.8574 23.1379 33.6997 23.0065 33.6209C22.6649 33.4369 22.402 33.174 22.1918 32.8586C22.0866 32.7272 21.8764 32.6747 21.9026 32.4907C21.9026 32.3855 21.9815 32.2804 21.9026 32.2016C22.0078 32.0701 22.1129 31.965 22.218 31.8599Z" fill="#D9C6E9"/>
<path d="M24.7137 32.5958L24.8714 32.4644L24.924 32.517C24.74 32.701 24.5823 32.8849 24.3984 33.0689L24.3721 32.9638L24.4509 32.8586L24.6086 32.701L24.7137 32.5958Z" fill="#CBA2E7"/>
<path d="M20.5098 36.1966H20.9829C20.8514 36.2492 20.6675 36.2492 20.5098 36.1966Z" fill="#7B38B1"/>
<path d="M28.8408 36.1966C29.0248 36.1966 29.1825 36.1966 29.3665 36.1966L29.3139 36.2492H28.8671L28.8408 36.1966Z" fill="#7B41AC"/>
<path d="M28.8936 36.2491H29.3404C29.209 36.328 29.0513 36.328 28.8936 36.2491Z" fill="#580897"/>
</svg>
