<svg width="50" height="50" viewBox="0 0 50 50" fill="none" xmlns="http://www.w3.org/2000/svg">
<path fill-rule="evenodd" clip-rule="evenodd" d="M10.0108 31.6231L7.72303 32.4591L7.60059 39.264L15.5192 36.3721C12.8029 35.4596 10.8198 33.854 10.0108 31.6231Z" fill="#FDBD39"/>
<path fill-rule="evenodd" clip-rule="evenodd" d="M11.2073 24.4253L3.27051 27.3246L7.72359 32.4591L10.0106 31.6231C9.20382 29.3988 9.70088 26.8851 11.2073 24.4253Z" fill="#F69833"/>
<path fill-rule="evenodd" clip-rule="evenodd" d="M24.5649 14.6052C14.4569 18.2974 7.94058 25.9165 10.0104 31.6231L46.6124 18.2522C44.5426 12.5456 34.6722 10.913 24.5649 14.6052Z" fill="#FECF33"/>
<path fill-rule="evenodd" clip-rule="evenodd" d="M32.0587 35.2701C42.166 31.5772 48.694 23.9924 46.6133 18.2522L10.0098 31.6231C12.0913 37.3633 21.9507 38.9623 32.0587 35.2701Z" fill="#EE6723"/>
<path fill-rule="evenodd" clip-rule="evenodd" d="M46.6132 18.2522L10.0098 31.6231C10.7262 33.5997 13.46 34.5734 17.2943 34.5734C21.0332 34.5734 25.8193 33.6485 30.8088 31.8257C40.9161 28.1335 48.0272 22.155 46.6118 18.2522" fill="#F69833"/>
<path fill-rule="evenodd" clip-rule="evenodd" d="M39.328 15.3019C35.5892 15.3019 30.803 16.2268 25.8135 18.0496C15.7063 21.7418 8.59519 27.7196 10.0106 31.6231L46.6126 18.2522C45.8962 16.2756 43.1631 15.3019 39.328 15.3019Z" fill="#FDBD39"/>
<path fill-rule="evenodd" clip-rule="evenodd" d="M37.3063 39.6248C36.2291 39.6248 34.641 38.6518 32.5836 36.7336C30.1515 34.4641 27.3645 31.1399 24.7364 27.3726C22.109 23.6068 19.9495 19.841 18.6566 16.7698C17.2485 13.423 17.0473 11.3656 18.0596 10.6535C18.2819 10.4976 18.5494 10.4189 18.8555 10.4189C19.6791 10.4189 21.2839 11.0318 24.251 13.9536L24.3166 14.017L24.3071 14.1081C24.2867 14.318 24.2685 14.5301 24.2517 14.7378L24.2189 15.1503L23.9274 14.8574C20.73 11.636 19.3227 11.2883 18.8657 11.2883C18.7353 11.2883 18.6318 11.3146 18.5574 11.367C18.118 11.6753 18.0895 13.1869 19.4553 16.4309C20.7257 19.4475 22.8531 23.1557 25.4462 26.8734C28.0408 30.5918 30.7848 33.8672 33.1746 36.0959C35.751 38.4995 36.912 38.759 37.2925 38.759C37.4236 38.759 37.5293 38.7313 37.6088 38.6752C38.0716 38.3501 38.0723 36.7307 36.5491 33.2382L36.4791 33.0786L36.6321 32.9948C36.7852 32.9109 36.9339 32.8286 37.0724 32.7499L37.256 32.6457L37.3406 32.8388C38.4199 35.3131 39.4294 38.458 38.1058 39.3887C37.8828 39.5454 37.6139 39.6248 37.3063 39.6248Z" fill="#EE6723"/>
<path fill-rule="evenodd" clip-rule="evenodd" d="M32.3034 35.1659L32.2888 35.3554C32.033 38.5177 31.3596 42.3185 29.6053 42.473C29.5703 42.476 29.5339 42.4774 29.4975 42.4774C28.3051 42.4774 27.1776 40.7698 26.1463 37.4026C25.1697 34.2163 24.4118 29.9395 24.0131 25.3575C23.6137 20.7776 23.6195 16.4323 24.0299 13.1242C24.4766 9.51876 25.3279 7.63622 26.5596 7.52762C26.596 7.52471 26.6339 7.52252 26.6711 7.52252C27.5355 7.52252 28.8386 8.50206 30.1723 13.0615L29.3014 13.2292C28.8561 11.7059 28.3707 10.467 27.889 9.61423C27.4429 8.82711 27.01 8.39346 26.6689 8.39346C26.6573 8.39346 26.6463 8.39346 26.6347 8.39492C26.1012 8.44156 25.3235 9.73667 24.8906 13.2314C24.4876 16.4804 24.4825 20.7601 24.876 25.2817C25.271 29.804 26.0159 34.018 26.975 37.1468C27.4043 38.5476 27.8751 39.7028 28.3372 40.4863C28.7628 41.2093 29.1746 41.6072 29.4967 41.6072C29.5077 41.6072 29.5186 41.6072 29.5303 41.6057C30.0404 41.5613 31.0032 40.2137 31.4084 35.4727L32.3034 35.1659Z" fill="#EE6723"/>
</svg>
