<svg width="186" height="60" viewBox="0 0 186 60" fill="none" xmlns="http://www.w3.org/2000/svg">
<g clip-path="url(#clip0_2282_6278)">
<path d="M23.2501 20.8369V27.0747H38.263C37.8644 30.5254 36.6687 33.1798 34.8087 34.9052C32.683 37.0287 29.2287 39.4176 23.2501 39.4176C14.0829 39.4176 6.90859 31.9853 6.90859 22.8277C6.90859 13.6701 13.95 6.2378 23.2501 6.2378C28.1658 6.2378 31.8858 8.22859 34.543 10.7503L38.9273 6.37052C35.2072 2.7871 30.1587 0 23.2501 0C10.6286 0 0 10.2194 0 22.8277C0 35.436 10.6286 45.6554 23.2501 45.6554C30.0258 45.6554 35.2072 43.3992 39.193 39.2849C43.3116 35.1706 44.6401 29.331 44.6401 24.6858C44.6401 23.2259 44.5073 21.8987 44.3744 20.8369H23.2501Z" fill="#363636"/>
<path d="M63.2401 15.6609C55.1358 15.6609 48.3601 21.8987 48.3601 30.3927C48.3601 38.8868 55.003 45.1246 63.2401 45.1246C71.4773 45.1246 78.1202 39.0195 78.1202 30.5254C78.1202 21.8987 71.4773 15.6609 63.2401 15.6609ZM63.2401 39.4176C58.723 39.4176 54.8701 35.7015 54.8701 30.5254C54.8701 25.2167 58.723 21.6333 63.2401 21.6333C67.7573 21.6333 71.6102 25.2167 71.6102 30.5254C71.6102 35.7015 67.7573 39.4176 63.2401 39.4176Z" fill="#363636"/>
<path d="M135.913 18.9789H135.647C134.186 17.2535 131.396 15.6609 127.809 15.6609C120.369 15.6609 113.992 22.0314 113.992 30.3927C113.992 38.6213 120.369 45.1246 127.809 45.1246C131.396 45.1246 134.186 43.5319 135.647 41.8066H135.913V43.9301C135.913 49.5043 132.857 52.5568 128.075 52.5568C124.089 52.5568 121.697 49.7697 120.635 47.2481L115.055 49.637C116.649 53.4859 121.033 58.3965 128.207 58.3965C135.78 58.3965 142.29 53.884 142.29 43.0011V16.4572H136.179V18.9789H135.913ZM128.473 39.4176C123.956 39.4176 120.635 35.5688 120.635 30.5254C120.635 25.3494 124.089 21.6333 128.473 21.6333C132.857 21.6333 136.312 25.4821 136.312 30.6582C136.445 35.7015 132.99 39.4176 128.473 39.4176Z" fill="#363636"/>
<path d="M96.3217 15.6609C88.2174 15.6609 81.4417 21.8987 81.4417 30.3927C81.4417 38.8868 88.0845 45.1246 96.3217 45.1246C104.559 45.1246 111.202 39.0195 111.202 30.5254C111.202 21.8987 104.559 15.6609 96.3217 15.6609ZM96.3217 39.4176C91.8045 39.4176 87.9517 35.7015 87.9517 30.5254C87.9517 25.2167 91.8045 21.6333 96.3217 21.6333C100.839 21.6333 104.692 25.2167 104.692 30.5254C104.692 35.7015 100.839 39.4176 96.3217 39.4176Z" fill="#363636"/>
<path d="M147.206 0.663574H153.583V45.2572H147.206V0.663574Z" fill="#363636"/>
<path d="M173.246 39.4176C169.925 39.4176 167.666 37.9577 166.072 34.9052L185.868 26.8093L185.203 25.084C184.008 21.766 180.155 15.6609 172.582 15.6609C165.009 15.6609 158.632 21.6333 158.632 30.3927C158.632 38.6213 164.876 45.1246 173.246 45.1246C180.022 45.1246 183.875 41.0103 185.602 38.6213L180.553 35.3033C178.826 37.825 176.568 39.4176 173.246 39.4176ZM172.848 21.2351C175.505 21.2351 177.763 22.5623 178.428 24.4204L165.142 29.9946C165.009 23.8895 169.526 21.2351 172.848 21.2351Z" fill="#363636"/>
</g>
<defs>
<clipPath id="clip0_2282_6278">
<rect width="186" height="59.16" fill="white"/>
</clipPath>
</defs>
</svg>
