<svg width="204" height="60" viewBox="0 0 204 60" fill="none" xmlns="http://www.w3.org/2000/svg">
<g clip-path="url(#clip0_2281_6255)">
<path d="M20.1173 59.1551C20.0799 59.1178 20.0424 59.0805 20.005 59.0432C19.2932 58.1474 14.8726 52.6238 10.3397 45.57C8.99101 43.3307 8.09191 41.5393 8.27922 41.0914C8.72877 39.8971 16.5959 39.2626 18.9935 40.345C19.7427 40.6809 19.7053 41.0914 19.7053 41.3526C19.7053 42.435 19.6678 45.3461 19.6678 45.3461C19.6678 45.9432 20.1548 46.4284 20.7542 46.4284C21.3536 46.4284 21.8406 45.9432 21.8406 45.3461V38.1057C21.8406 37.4712 21.1663 37.3219 21.0164 37.2846C19.7427 37.2846 17.1953 37.2846 14.4231 37.2846C8.35415 37.2846 6.96804 37.5458 5.95655 36.874C3.70881 35.4185 0.0749544 25.6029 -0.0374328 20.0792C-0.14982 12.279 4.49552 5.52373 11.014 2.20209C13.7487 0.821188 16.8207 0.0747525 20.0799 0.0747525C30.457 0.000108953 38.9609 7.76304 40.0848 17.7653C40.0848 17.7653 40.0848 17.7653 40.0848 17.8026C40.3096 20.2285 26.9355 20.751 24.2757 20.0419C23.8636 19.9299 23.7512 19.5194 23.7512 19.3328C23.7512 17.504 23.7512 12.3163 23.7512 12.3163C23.7512 11.7191 23.2642 11.234 22.6648 11.234C22.0654 11.234 21.5784 11.7191 21.5784 12.3163L21.6158 21.8334C21.6158 22.4305 22.1403 22.5798 22.2902 22.6171C23.7887 22.6171 27.3101 22.6171 30.6068 22.6171C35.0274 22.6171 36.9005 23.1396 38.1368 24.0727C38.9609 24.7071 39.2606 25.9014 38.9984 27.4316C36.451 41.3153 20.7167 58.446 20.1173 59.1551ZM62.787 26.8718C66.758 28.5513 69.2306 30.4547 69.2306 34.5601C69.2306 38.7774 66.0088 41.5019 61.0638 41.5019C57.0553 41.5019 53.8335 39.6732 52.2226 36.5381L51.9604 36.0156L56.6807 33.2911L56.9804 33.8136C58.0293 35.5304 59.2281 36.2769 60.9514 36.2769C62.4499 36.2769 63.4239 35.6051 63.4239 34.6347C63.4239 33.5524 62.7121 33.1419 60.4644 32.1715L59.3405 31.6863C56.306 30.38 53.4964 28.6259 53.4964 24.2593C53.4964 20.3778 56.4934 17.6533 60.8015 17.6533C64.0608 17.6533 66.271 18.9223 67.807 21.6094L68.1067 22.0946L63.5363 25.043L63.2366 24.4832C62.4873 23.1023 61.7381 22.841 60.839 22.841C59.865 22.841 59.2656 23.3635 59.2656 24.1846C59.2656 25.1177 59.7151 25.5282 61.7006 26.3866L62.787 26.8718ZM96.241 27.6556L99.5751 18.3997H105.307L96.8029 41.9125H95.5292L90.3968 30.8652C90.1721 30.3427 89.9098 29.7456 89.685 29.1484C89.4603 29.7082 89.198 30.3427 88.9733 30.8652L83.6536 41.8752H82.3799L73.7635 18.3624H79.8699L83.2415 27.6182C83.4663 28.2154 83.6911 28.9245 83.8784 29.5963C84.1031 28.9245 84.3654 28.1781 84.6651 27.5436L89.0857 18.1385H90.3219L94.8174 27.5436C95.1171 28.1407 95.3793 28.8872 95.6041 29.5963C95.8289 28.9618 96.0537 28.2527 96.241 27.6556ZM112.013 41.2034V17.9146H117.782V41.2034H112.013ZM136.738 33.3658V28.1407H147.452V38.5908L147.227 38.7774C145.991 39.7851 142.732 41.4646 138.349 41.4646C130.894 41.4646 125.724 36.5381 125.724 29.5216C125.724 22.6171 130.744 17.616 137.637 17.616C141.421 17.616 144.23 18.6983 146.141 20.863L146.516 21.2735L142.582 25.155L142.17 24.7071C141.083 23.5875 139.922 22.8784 137.637 22.8784C134.115 22.8784 131.643 25.6029 131.643 29.4843C131.643 33.5524 134.265 36.1649 138.349 36.1649C139.697 36.1649 141.121 35.941 142.058 35.5678V33.3285H136.738V33.3658ZM166.033 33.3658V28.1407H176.748V38.5908L176.523 38.7774C175.287 39.7851 172.027 41.4646 167.644 41.4646C160.189 41.4646 155.019 36.5381 155.019 29.5216C155.019 22.6171 160.039 17.616 166.933 17.616C170.716 17.616 173.526 18.6983 175.437 20.863L175.811 21.2735L171.878 25.155L171.465 24.7071C170.379 23.5875 169.218 22.8784 166.933 22.8784C163.411 22.8784 160.939 25.6029 160.939 29.4843C160.939 33.5524 163.561 36.1649 167.682 36.1649C169.03 36.1649 170.454 35.941 171.391 35.5678V33.3285H166.033V33.3658ZM197.951 17.9146H203.983L195.666 33.4031V41.2034H189.86V33.739L181.056 17.9146H187.499L191.583 25.3416C192.032 26.1627 192.482 27.2077 192.819 28.1034C193.156 27.245 193.606 26.2 194.018 25.3789L197.951 17.9146Z" fill="#363636"/>
</g>
<defs>
<clipPath id="clip0_2281_6255">
<rect width="203.983" height="59.155" fill="white"/>
</clipPath>
</defs>
</svg>
