<svg width="118" height="59" viewBox="0 0 118 59" fill="none" xmlns="http://www.w3.org/2000/svg">
<g clip-path="url(#clip0_2283_6333)">
<g clip-path="url(#clip1_2283_6333)">
<path fill-rule="evenodd" clip-rule="evenodd" d="M0 58.8566H59.6484L118 0.643311H0V58.8566Z" fill="#363636"/>
<path fill-rule="evenodd" clip-rule="evenodd" d="M70.022 12.2862H58.3517V39.5818L48.2374 12.2862H38.1231L29.4352 35.1834C28.5275 29.3621 22.433 27.4217 17.7648 25.8693C14.6527 24.8344 11.2813 23.4114 11.411 21.7297C11.411 20.4361 13.2264 19.1424 16.7275 19.2718C19.0615 19.4012 21.1363 19.5305 25.2857 21.6003L29.3055 14.6147C25.5451 12.6743 20.3582 11.51 16.2088 11.51C11.2813 11.51 7.13187 13.0624 4.53846 15.779C2.72308 17.5901 1.81539 19.9186 1.81539 22.5059C1.81539 25.9987 3.11209 28.5859 5.83517 30.6557C8.16923 32.3374 11.1517 33.5017 13.7451 34.2779C16.9868 35.3128 19.5802 36.089 19.5802 38.0294C19.5802 38.6762 19.3209 39.323 18.8022 39.8405C18.0242 40.6167 16.7275 41.0048 15.0418 41.0048C11.5407 40.8754 9.07692 40.358 5.18681 38.1588L1.55605 45.2737C5.44616 47.4729 9.59561 48.6372 14.2637 48.6372H15.3011C19.3209 48.5078 22.6923 47.6023 25.2857 45.5325C25.4154 45.4031 25.5451 45.2737 25.6747 45.1444L25.4154 47.2142H35.2703L37.0857 42.6865C38.9011 43.3333 41.1055 43.7214 43.3099 43.7214C45.5143 43.7214 47.589 43.3333 49.4044 42.8158L50.5714 47.2142H68.2066V36.9945H71.967C81.044 36.9945 86.3604 32.3374 86.3604 24.705C86.3604 16.0377 81.044 12.2862 70.022 12.2862ZM43.1802 35.7009C41.8835 35.7009 40.5868 35.4422 39.4198 35.0541L43.0506 23.4114H43.1802L46.811 35.0541C45.7736 35.4422 44.4769 35.7009 43.1802 35.7009ZM70.6703 28.974H68.0769V19.6599H70.6703C74.0418 19.6599 76.7648 20.8241 76.7648 24.3169C76.7648 27.8097 74.0418 28.974 70.6703 28.974Z" fill="#FAF8F6"/>
</g>
</g>
<defs>
<clipPath id="clip0_2283_6333">
<rect width="118" height="59" fill="white"/>
</clipPath>
<clipPath id="clip1_2283_6333">
<rect width="118" height="58.2133" fill="white" transform="translate(0 0.643311)"/>
</clipPath>
</defs>
</svg>
