<svg width="150" height="59" viewBox="0 0 150 59" fill="none" xmlns="http://www.w3.org/2000/svg">
<g clip-path="url(#clip0_2283_6319)">
<path fill-rule="evenodd" clip-rule="evenodd" d="M71.9846 14.2888C68.1352 12.7555 64.1574 12.7555 60.0513 13.2666C56.2019 13.7777 52.6091 15.0555 49.5295 17.4833C40.2908 24.6388 38.8794 37.1611 43.627 46.4888C47.8614 54.5388 57.7417 59.2666 68.1352 58.2444C72.8828 57.7333 76.9889 55.6888 80.8383 53.1333C81.3516 52.75 81.3516 52.3666 81.2233 51.8555C79.9401 48.4055 76.9889 46.8722 73.6527 48.6611C70.1882 50.45 66.5954 50.8333 62.8743 50.5777C60.4363 50.45 58.1266 49.9388 56.0736 48.5333C55.3037 48.0222 54.6621 47.2555 53.7639 46.4888C54.5338 46.2333 54.7904 46.1055 55.1754 45.9777C64.414 42.9111 73.6527 39.9722 82.8914 36.9055C83.5329 36.65 83.7896 36.5222 83.7896 35.7555C83.6613 33.3277 83.9179 30.9 83.4046 28.6C82.3781 21.8277 78.5287 16.8444 71.9846 14.2888ZM73.2677 31.1555C65.9538 33.5833 58.6399 36.0111 51.1976 38.5666C51.1976 38.5666 51.0693 38.5666 50.941 38.5666C49.0163 30.2611 53.7639 20.6777 64.1574 21.3166C68.2635 21.5722 71.5997 23.3611 73.2677 27.3222C73.6527 28.2166 73.6527 29.2388 73.781 30.2611C73.9093 30.5166 73.6527 31.0277 73.2677 31.1555Z" fill="#363636"/>
<path fill-rule="evenodd" clip-rule="evenodd" d="M38.6228 21.3166C40.9324 18.6333 40.9324 18.6333 40.9324 15.0555C40.9324 13.1389 40.6758 12.8833 38.7511 12.8833C26.6895 12.8833 14.7562 12.8833 2.69461 12.8833C2.30967 12.8833 1.92472 12.8833 1.66809 12.8833C1.15483 17.7389 4.3627 21.4444 9.11035 21.4444C14.2429 21.4444 19.3755 21.4444 24.5081 21.4444H25.7913C25.4063 21.9555 25.1497 22.3389 24.8931 22.5944C17.4508 31.5389 10.1369 40.2277 2.69461 48.9166C0.769888 51.0889 -0.25663 53.2611 0.128315 56.0722C0.384944 57.8611 0.641574 58.3722 2.43798 58.3722H39.3926H40.8041C40.6758 56.8389 40.8041 55.5611 40.5475 54.2833C40.1625 51.4722 38.6228 49.9389 35.7998 49.6833C34.7733 49.5555 33.6185 49.6833 32.592 49.6833C27.2027 49.6833 21.8135 49.6833 16.296 49.6833C16.0393 49.6833 15.6544 49.6833 15.2695 49.6833C15.3978 49.4277 15.5261 49.3 15.6544 49.1722C23.225 39.8444 30.9239 30.6444 38.6228 21.3166Z" fill="#363636"/>
<path fill-rule="evenodd" clip-rule="evenodd" d="M150 31.6667C150 29.75 149.872 27.7056 149.615 25.7889C148.589 19.6556 145.381 15.4389 139.222 13.7778C132.934 12.1167 127.032 13.0111 121.129 15.5667C119.589 16.3333 118.178 17.2278 116.382 18.25C117.536 19.5278 118.306 20.6778 119.333 21.5722C120.873 22.85 122.541 23.1056 124.465 22.2111C127.16 20.9333 129.983 20.2945 132.934 20.4222C137.81 20.55 140.761 23.2333 141.146 28.0889C141.275 30.1333 141.275 30.1333 139.35 30.0056C138.965 30.0056 138.708 29.8778 138.323 29.8778C133.191 29.6222 128.186 29.6222 123.182 31.4111C119.076 32.8167 115.74 35.2445 114.457 39.5889C113.944 41.3778 113.687 43.4222 113.687 45.3389C113.559 48.7889 114.842 51.8556 117.408 54.2833C124.85 61.1833 136.527 59.0111 141.018 51.9833C141.275 51.7278 141.403 51.3445 141.66 51.0889C141.916 51.6 141.916 53.3889 141.916 53.9C141.916 55.1778 142.429 56.3278 143.584 56.9667C145.509 58.2445 147.69 58.5 150.128 58.6278V57.4778C150 49.1722 150.128 39.8445 150 31.6667ZM139.222 42.1445C138.195 45.5945 136.27 48.4056 133.191 50.1945C130.111 51.9833 126.005 51.7278 123.311 49.5556C120.103 47.1278 120.103 42.2722 123.182 39.7167C125.364 37.9278 127.93 37.4167 130.624 37.1611C133.447 36.9056 136.27 36.65 139.093 36.3945C139.35 36.3945 139.478 36.3945 139.863 36.3945C140.12 38.4389 139.863 40.3556 139.222 42.1445Z" fill="#363636"/>
<path fill-rule="evenodd" clip-rule="evenodd" d="M105.603 50.1946C105.218 50.1946 104.961 50.1946 104.577 50.1946C101.882 50.0668 100.47 49.1723 99.8289 46.6168C99.3157 44.5723 98.9307 42.5279 98.8024 40.3557C98.6741 36.7779 98.8024 33.3279 98.8024 29.7501V20.9334C101.24 20.8057 103.678 21.3168 105.475 19.4001C107.143 17.6112 107.528 15.439 107.528 13.0112H106.373C104.32 13.0112 102.267 13.0112 100.214 13.0112C99.3156 13.0112 98.9307 12.7557 99.059 11.8612C99.059 8.41121 99.059 5.72788 99.059 2.27788C99.059 1.89455 99.059 1.51121 99.059 1.0001C96.4927 0.872325 94.1831 1.51121 92.13 2.91677C90.4619 3.93899 89.8204 5.34455 89.8204 7.13344C89.8204 18.3779 89.8204 29.7501 89.692 40.9946C89.692 43.6779 89.9487 46.3612 90.7186 48.9168C92.3866 53.7723 95.4662 57.2223 100.599 58.1168C103.165 58.5001 105.731 58.3723 108.298 58.3723C111.121 58.3723 111.121 58.3723 110.864 55.5612C110.864 52.6223 109.324 49.939 105.603 50.1946Z" fill="#363636"/>
</g>
<defs>
<clipPath id="clip0_2283_6319">
<rect width="150" height="57.5" fill="white" transform="translate(0 1)"/>
</clipPath>
</defs>
</svg>
