<svg width="171" height="60" viewBox="0 0 171 60" fill="none" xmlns="http://www.w3.org/2000/svg">
<g clip-path="url(#clip0_2282_6292)">
<g clip-path="url(#clip1_2282_6292)">
<path d="M8.36102 31.3846C6.70513 31.3846 5.24749 31.0229 3.98807 30.2994C2.72866 29.5527 1.74911 28.5258 1.04944 27.2188C0.34977 25.8888 -6.10352e-05 24.3603 -6.10352e-05 22.6332C-6.10352e-05 20.5562 0.513032 18.7359 1.53922 17.1725C2.58872 15.6089 4.06969 14.407 5.98213 13.5668C7.91789 12.7268 10.1802 12.3068 12.769 12.3068C13.9584 12.3068 14.9263 12.3884 15.6726 12.5518V11.8167C15.6726 10.043 15.3461 8.72448 14.6931 7.86103C14.04 6.97422 13.0488 6.53082 11.7194 6.53082C9.57379 6.53082 8.19776 7.66266 7.59139 9.92632C7.40481 10.5798 7.01999 10.8598 6.43693 10.7665L1.67916 9.92632C1.32931 9.85632 1.08443 9.70463 0.944494 9.47127C0.827887 9.23789 0.816221 8.92285 0.90953 8.52613C1.51591 6.14576 2.79865 4.30214 4.75772 2.99529C6.74014 1.6651 9.22398 1 12.2092 1C15.7543 1 18.448 1.95681 20.2905 3.87043C22.1563 5.78405 23.0891 8.57279 23.0891 12.2368V29.8444C23.0891 30.1011 22.9959 30.3226 22.8094 30.5093C22.6461 30.6727 22.436 30.7544 22.1795 30.7544H17.6317C17.072 30.7544 16.7221 30.451 16.5822 29.8444L15.8825 26.5539H15.6027C14.973 28.0941 14.0284 29.2842 12.769 30.1243C11.5329 30.9645 10.0636 31.3846 8.36102 31.3846ZM7.62636 21.793C7.62636 23.03 7.94122 24.0218 8.57092 24.7685C9.22396 25.492 10.0985 25.8537 11.1947 25.8537C12.6407 25.8537 13.7485 25.2119 14.5181 23.9283C15.2878 22.6216 15.6726 20.7545 15.6726 18.3277V16.4723C15.0196 16.3556 14.4015 16.2972 13.8185 16.2972C11.906 16.2972 10.3901 16.7989 9.2706 17.8025C8.17444 18.7827 7.62636 20.1129 7.62636 21.793ZM27.427 2.54021C27.427 2.28351 27.5088 2.07349 27.6719 1.91013C27.8585 1.72343 28.0801 1.63009 28.3366 1.63009H32.9545C33.211 1.63009 33.421 1.71176 33.5841 1.87512C33.7709 2.03848 33.8873 2.26017 33.934 2.54021L34.6338 5.97073H34.9135C35.5434 4.3605 36.4411 3.13531 37.6074 2.29518C38.7968 1.43171 40.1961 1 41.8053 1C43.5313 1 45.0122 1.45505 46.2482 2.3652C47.5077 3.27533 48.4756 4.57054 49.1519 6.25077H49.4319C50.4581 4.47718 51.6126 3.15865 52.8953 2.29518C54.178 1.43171 55.6122 1 57.1981 1C58.9241 1 60.4166 1.46672 61.6761 2.40019C62.9588 3.33368 63.9384 4.66388 64.6147 6.39079C65.291 8.11773 65.6293 10.1597 65.6293 12.5167V29.8444C65.6293 30.1011 65.5359 30.3226 65.3493 30.5093C65.186 30.6727 64.9762 30.7544 64.7197 30.7544H59.1223C58.8658 30.7544 58.6442 30.6727 58.4576 30.5093C58.2943 30.3226 58.2127 30.1011 58.2127 29.8444V13.0767C58.2127 11.3731 57.8863 10.0663 57.2332 9.15621C56.5801 8.24608 55.6357 7.79101 54.3994 7.79101C53.0468 7.79101 52.0089 8.32775 51.2859 9.40125C50.5863 10.4747 50.2364 12.0266 50.2364 14.0569V29.8444C50.2364 30.1011 50.1431 30.3226 49.9565 30.5093C49.7934 30.6727 49.5834 30.7544 49.3269 30.7544H43.7295C43.473 30.7544 43.2513 30.6727 43.0648 30.5093C42.9014 30.3226 42.8199 30.1011 42.8199 29.8444V13.0767C42.8199 11.3731 42.4934 10.0663 41.8403 9.15621C41.1873 8.24608 40.2428 7.79101 39.0068 7.79101C37.6539 7.79101 36.6161 8.32775 35.8931 9.40125C35.1935 10.4747 34.8436 12.0266 34.8436 14.0569V29.8444C34.8436 30.1011 34.7504 30.3226 34.5639 30.5093C34.4005 30.6727 34.1905 30.7544 33.934 30.7544H28.3366C28.0801 30.7544 27.8585 30.6727 27.6719 30.5093C27.5088 30.3226 27.427 30.1011 27.427 29.8444V2.54021ZM69.2674 22.6332C69.2674 20.5562 69.7807 18.7359 70.8069 17.1725C71.8563 15.6089 73.3372 14.407 75.2498 13.5668C77.1854 12.7268 79.4479 12.3068 82.0365 12.3068C83.2261 12.3068 84.194 12.3884 84.9402 12.5518V11.8167C84.9402 10.043 84.6136 8.72448 83.9607 7.86103C83.3076 6.97422 82.3165 6.53082 80.9871 6.53082C78.8415 6.53082 77.4653 7.66266 76.859 9.92632C76.6724 10.5798 76.2876 10.8598 75.7045 10.7665L70.9467 9.92632C70.5969 9.85632 70.352 9.70463 70.2121 9.47127C70.0955 9.23789 70.0839 8.92285 70.177 8.52613C70.7834 6.14576 72.0661 4.30214 74.0254 2.99529C76.0077 1.6651 78.4916 1 81.4768 1C85.0218 1 87.7155 1.95681 89.5581 3.87043C91.4238 5.78405 92.3568 8.57279 92.3568 12.2368V29.8444C92.3568 30.1011 92.2634 30.3226 92.0769 30.5093C91.9135 30.6727 91.7037 30.7544 91.4472 30.7544H86.8993C86.3396 30.7544 85.9897 30.451 85.8498 29.8444L85.15 26.5539H84.8703C84.2405 28.0941 83.296 29.2842 82.0365 30.1243C80.8005 30.9645 79.3312 31.3846 77.6287 31.3846C75.9261 31.3846 74.5152 31.0229 73.2557 30.2994C71.9962 29.5527 71.0167 28.5258 70.3171 27.2188C69.6173 25.8888 69.2674 24.3603 69.2674 22.6332ZM76.894 21.793C76.894 23.03 77.2089 24.0218 77.8385 24.7685C78.4916 25.492 79.3661 25.8537 80.4622 25.8537C81.9083 25.8537 83.0161 25.2119 83.7858 23.9283C84.5553 22.6216 84.9402 20.7545 84.9402 18.3277V16.4723C84.2872 16.3556 83.6691 16.2972 83.086 16.2972C81.1736 16.2972 79.6577 16.7989 78.5383 17.8025C77.4421 18.7827 76.894 20.1129 76.894 21.793ZM96.135 25.6087C96.135 25.0954 96.2749 24.6518 96.5549 24.2784L108.519 7.51097H97.3244C97.0679 7.51097 96.8462 7.4293 96.6597 7.26593C96.4966 7.07923 96.4148 6.85754 96.4148 6.60084V2.54021C96.4148 2.28351 96.4966 2.07349 96.6597 1.91013C96.8462 1.72343 97.0679 1.63009 97.3244 1.63009H115.726C115.982 1.63009 116.192 1.72343 116.356 1.91013C116.542 2.07349 116.635 2.28351 116.635 2.54021V6.77585C116.635 7.28927 116.495 7.73266 116.215 8.10606L105.371 23.0182C106.024 22.9017 106.688 22.8434 107.365 22.8434C109.044 22.8434 110.583 22.9949 111.983 23.2983C113.405 23.5784 114.874 24.045 116.39 24.6985C116.927 24.9319 117.195 25.3286 117.195 25.8888V29.9144C117.195 30.2878 117.079 30.5444 116.845 30.6844C116.612 30.8011 116.321 30.7895 115.971 30.6495C114.222 29.996 112.671 29.541 111.318 29.2841C109.988 29.0042 108.531 28.8641 106.945 28.8641C105.359 28.8641 103.843 29.0042 102.327 29.2841C100.834 29.5643 99.1786 30.0192 97.3595 30.6495C97.0096 30.7662 96.718 30.7662 96.4847 30.6495C96.2517 30.5093 96.135 30.2643 96.135 29.9144V25.6087ZM118.734 16.1922C118.734 13.3452 119.283 10.7665 120.379 8.45611C121.475 6.12242 122.979 4.30214 124.892 2.99529C126.827 1.6651 128.973 1 131.328 1C133.684 1 135.853 1.6651 137.765 2.99529C139.701 4.30214 141.217 6.12242 142.313 8.45611C143.433 10.7665 143.993 13.3452 143.993 16.1922C143.993 19.0393 143.433 21.6298 142.313 23.9634C141.217 26.2738 139.701 28.0941 137.765 29.4243C135.853 30.7311 133.707 31.3846 131.328 31.3846C128.95 31.3846 126.827 30.7311 124.892 29.4243C122.979 28.0941 121.475 26.2738 120.379 23.9634C119.283 21.6298 118.734 19.0393 118.734 16.1922ZM126.431 16.1922C126.431 19.156 126.851 21.4431 127.69 23.0533C128.53 24.6402 129.742 25.4336 131.328 25.4336C132.915 25.4336 134.139 24.6402 135.002 23.0533C135.865 21.4431 136.296 19.156 136.296 16.1922C136.296 13.2285 135.865 10.9532 135.002 9.36626C134.139 7.756 132.915 6.95088 131.328 6.95088C129.742 6.95088 128.53 7.756 127.69 9.36626C126.851 10.9532 126.431 13.2285 126.431 16.1922ZM147.771 2.54021C147.771 2.28351 147.852 2.07349 148.016 1.91013C148.202 1.72343 148.424 1.63009 148.68 1.63009H153.298C153.555 1.63009 153.765 1.71176 153.928 1.87512C154.115 2.03848 154.231 2.26017 154.278 2.54021L154.977 5.97073H155.257C155.887 4.38384 156.808 3.15865 158.021 2.29518C159.257 1.43171 160.703 1 162.359 1C164.131 1 165.659 1.46672 166.942 2.40019C168.248 3.33368 169.251 4.66388 169.95 6.39079C170.65 8.11773 171 10.1597 171 12.5167V29.8444C171 30.1011 170.907 30.3226 170.72 30.5093C170.557 30.6727 170.347 30.7544 170.09 30.7544H164.493C164.236 30.7544 164.015 30.6727 163.828 30.5093C163.665 30.3226 163.583 30.1011 163.583 29.8444V13.0767C163.583 11.3731 163.233 10.0663 162.534 9.15621C161.834 8.24608 160.843 7.79101 159.56 7.79101C158.138 7.79101 157.053 8.32775 156.307 9.40125C155.56 10.4747 155.187 12.0266 155.187 14.0569V29.8444C155.187 30.1011 155.094 30.3226 154.908 30.5093C154.744 30.6727 154.534 30.7544 154.278 30.7544H148.68C148.424 30.7544 148.202 30.6727 148.016 30.5093C147.852 30.3226 147.771 30.1011 147.771 29.8444V2.54021Z" fill="#363636"/>
<path d="M19.4516 34.7791C19.0085 35.1292 18.9152 35.7125 19.1717 36.5294C19.405 37.2529 19.953 38.1512 20.816 39.2248C24.2909 43.5189 28.4307 47.0893 33.2351 49.9364C38.0396 52.7836 43.1823 54.8838 48.663 56.2373C54.1671 57.6142 59.7877 58.3026 65.525 58.3026C72.8716 58.3026 79.8683 57.2293 86.5152 55.0821C93.1621 52.9584 98.7128 49.9713 103.168 46.1208C104.73 44.744 105.511 43.6472 105.511 42.8303C105.511 42.5269 105.383 42.2235 105.127 41.9201C104.777 41.5702 104.357 41.4535 103.867 41.5702C103.377 41.6867 102.689 41.9785 101.803 42.4453C97.5351 44.6857 92.3342 46.4709 86.2004 47.8011C80.09 49.1546 73.7113 49.8314 67.0644 49.8314C58.8316 49.8314 50.8786 48.7113 43.2055 46.4709C35.5324 44.2305 28.7339 40.7301 22.81 35.9694C21.9471 35.2926 21.2474 34.8607 20.711 34.674C20.1979 34.4873 19.7781 34.5224 19.4516 34.7791Z" fill="#363636"/>
<path d="M97.1839 36.5313C96.6941 36.9981 96.5658 37.4882 96.7991 38.0017C96.9624 38.3751 97.2772 38.585 97.7438 38.6317C98.2101 38.7017 98.8748 38.655 99.7377 38.4918C101.137 38.1884 102.595 37.9782 104.111 37.8615C105.627 37.7683 106.944 37.7915 108.064 37.9315C109.183 38.0949 109.883 38.3751 110.163 38.7717C110.583 39.4019 110.431 40.7319 109.708 42.7624C109.009 44.7926 108.052 46.7645 106.839 48.6782C106.373 49.4482 106.093 50.055 106 50.4986C105.907 50.9419 106.023 51.3153 106.35 51.6186C106.559 51.8286 106.793 51.9336 107.049 51.9336C107.726 51.9336 108.705 51.3385 109.988 50.1484C112.297 48.1415 113.918 45.7611 114.851 43.0074C115.364 41.5837 115.679 40.0903 115.795 38.5266C115.912 36.9632 115.737 35.8429 115.27 35.1662C114.827 34.5127 113.848 33.9759 112.332 33.556C110.839 33.1359 109.335 32.9258 107.819 32.9258C104.857 32.9258 102.047 33.626 99.388 35.0262C98.4085 35.563 97.6738 36.0647 97.1839 36.5313Z" fill="#363636"/>
</g>
</g>
<defs>
<clipPath id="clip0_2282_6292">
<rect width="171" height="59.16" fill="white"/>
</clipPath>
<clipPath id="clip1_2282_6292">
<rect width="171" height="57.3026" fill="white" transform="translate(0 1)"/>
</clipPath>
</defs>
</svg>
