<svg width="261" height="59" viewBox="0 0 261 59" fill="none" xmlns="http://www.w3.org/2000/svg">
<g clip-path="url(#clip0_2283_6307)">
<path d="M92.1278 33.3481L90.5722 37.7507H90.4425C90.1833 36.7579 89.7079 35.2472 88.9301 33.4344L80.5902 12.5005H72.4232V45.8653H77.8246V25.2766C77.8246 23.9818 77.8246 22.5142 77.7814 20.7014C77.7382 19.795 77.6518 19.1044 77.6086 18.5864H77.7382C77.9975 19.8813 78.3 20.8309 78.516 21.4352L88.5412 45.779H92.3438L102.283 21.2193C102.499 20.6582 102.715 19.536 102.931 18.5864H103.06C102.931 21.0467 102.844 23.248 102.801 24.586V45.7358H108.548V12.4141H100.684L92.1278 33.3481ZM113.993 21.8236H119.611V45.7358H113.993V21.8236ZM116.845 11.7235C115.894 11.7235 115.117 12.0688 114.468 12.6731C113.82 13.2774 113.474 14.0543 113.474 15.0039C113.474 15.9103 113.82 16.6873 114.468 17.2915C115.117 17.8958 115.894 18.1979 116.845 18.1979C117.796 18.1979 118.617 17.8526 119.222 17.2915C119.87 16.6873 120.216 15.9103 120.216 15.0039C120.216 14.0975 119.87 13.3206 119.222 12.6731C118.66 12.0688 117.839 11.7235 116.845 11.7235ZM139.531 21.6078C138.494 21.392 137.414 21.2625 136.377 21.2625C133.827 21.2625 131.494 21.8236 129.549 22.9459C127.605 24.0681 126.049 25.6219 125.055 27.5643C124.018 29.5498 123.5 31.8374 123.5 34.4703C123.5 36.7579 124.018 38.7866 125.012 40.6426C126.006 42.4554 127.389 43.923 129.247 44.9157C131.019 45.9085 133.093 46.4264 135.426 46.4264C138.105 46.4264 140.395 45.8653 142.21 44.8294L142.254 44.7862V39.6067L142.038 39.7793C141.217 40.3836 140.266 40.9016 139.315 41.2037C138.321 41.549 137.414 41.7217 136.636 41.7217C134.389 41.7217 132.617 41.0742 131.364 39.6499C130.068 38.2686 129.42 36.3695 129.42 33.9955C129.42 31.5352 130.068 29.5929 131.407 28.1685C132.747 26.7442 134.519 26.0104 136.679 26.0104C138.494 26.0104 140.352 26.6147 142.038 27.8232L142.254 27.9959V22.5142L142.21 22.4711C141.476 22.1689 140.655 21.8236 139.531 21.6078ZM158.069 21.4352C156.686 21.4352 155.39 21.8668 154.267 22.7732C153.316 23.5501 152.668 24.6724 152.106 26.0104H152.063V21.8236H146.445V45.7358H152.063V33.5207C152.063 31.4489 152.495 29.7224 153.445 28.4707C154.396 27.1758 155.606 26.5284 157.075 26.5284C157.594 26.5284 158.112 26.6579 158.761 26.7442C159.366 26.9168 159.798 27.0895 160.1 27.3053L160.316 27.4779V21.8668L160.187 21.8236C159.798 21.5646 159.02 21.4352 158.069 21.4352ZM173.366 21.3057C169.434 21.3057 166.279 22.4711 164.076 24.7587C161.829 27.0463 160.748 30.1972 160.748 34.1682C160.748 37.8802 161.872 40.9016 164.032 43.1029C166.193 45.261 169.131 46.3832 172.804 46.3832C176.65 46.3832 179.718 45.2179 181.922 42.8871C184.169 40.5563 185.249 37.4486 185.249 33.6071C185.249 29.8087 184.212 26.7873 182.095 24.586C180.064 22.3847 177.082 21.3057 173.366 21.3057ZM177.86 39.693C176.823 41.0311 175.181 41.6785 173.15 41.6785C171.119 41.6785 169.477 41.0311 168.31 39.6067C167.144 38.2686 166.582 36.3263 166.582 33.866C166.582 31.3194 167.187 29.3771 168.31 27.9959C169.477 26.6147 171.076 25.9241 173.107 25.9241C175.095 25.9241 176.65 26.5715 177.774 27.9096C178.897 29.2476 179.502 31.1899 179.502 33.7365C179.416 36.3263 178.941 38.355 177.86 39.693ZM197.781 31.7511C196.009 31.0173 194.886 30.4562 194.367 29.9814C193.935 29.5498 193.719 28.9455 193.719 28.1685C193.719 27.5211 193.978 26.8737 194.626 26.442C195.275 26.0104 196.009 25.7946 197.09 25.7946C198.04 25.7946 199.034 25.9672 199.985 26.2262C200.935 26.4852 201.8 26.8737 202.491 27.3916L202.707 27.5643V22.2984L202.577 22.2552C201.929 21.9963 201.065 21.7373 200.028 21.5215C198.991 21.3488 198.04 21.2625 197.262 21.2625C194.583 21.2625 192.379 21.9099 190.651 23.3343C188.922 24.6724 188.101 26.4852 188.101 28.6002C188.101 29.7224 188.274 30.7152 188.663 31.5352C189.052 32.3553 189.614 33.1323 190.392 33.7797C191.169 34.384 192.293 35.0746 193.849 35.722C195.145 36.2832 196.139 36.7148 196.744 37.0601C197.349 37.4054 197.738 37.7939 198.04 38.096C198.256 38.4413 198.386 38.8729 198.386 39.434C198.386 41.0311 197.176 41.808 194.713 41.808C193.762 41.808 192.768 41.6353 191.602 41.2469C190.435 40.8584 189.355 40.2973 188.447 39.6499L188.231 39.4772V44.9589L188.361 45.002C189.182 45.3905 190.176 45.6495 191.386 45.9516C192.595 46.1674 193.676 46.3401 194.626 46.3401C197.522 46.3401 199.898 45.6926 201.584 44.2683C203.312 42.8871 204.219 41.1174 204.219 38.8298C204.219 37.2327 203.787 35.8084 202.837 34.7293C201.584 33.6934 200.028 32.6143 197.781 31.7511ZM219.041 21.3057C215.109 21.3057 211.954 22.4711 209.751 24.7587C207.547 27.0463 206.423 30.1972 206.423 34.1682C206.423 37.8802 207.547 40.9016 209.707 43.1029C211.868 45.261 214.806 46.3832 218.479 46.3832C222.325 46.3832 225.393 45.2179 227.597 42.8871C229.844 40.5563 230.924 37.4486 230.924 33.6071C230.924 29.8087 229.887 26.7873 227.77 24.586C225.739 22.3847 222.757 21.3057 219.041 21.3057ZM223.492 39.693C222.455 41.0311 220.813 41.6785 218.782 41.6785C216.708 41.6785 215.109 41.0311 213.942 39.6067C212.775 38.2686 212.214 36.3263 212.214 33.866C212.214 31.3194 212.819 29.3771 213.942 27.9959C215.109 26.6147 216.708 25.9241 218.739 25.9241C220.683 25.9241 222.282 26.5715 223.406 27.9096C224.529 29.2476 225.134 31.1899 225.134 33.7365C225.134 36.3263 224.572 38.355 223.492 39.693ZM260.957 26.442V21.8236H255.296V14.7449L255.123 14.7881L249.765 16.3851L249.635 16.4283V21.8236H241.166V18.8022C241.166 17.421 241.511 16.3419 242.116 15.6513C242.721 14.9607 243.629 14.6154 244.752 14.6154C245.53 14.6154 246.351 14.7881 247.259 15.1766L247.475 15.306V10.4286L247.345 10.3855C246.567 10.1265 245.53 9.95386 244.19 9.95386C242.505 9.95386 241.036 10.3423 239.696 10.9898C238.357 11.7235 237.363 12.7163 236.628 14.0543C235.894 15.3492 235.505 16.8167 235.505 18.5001V21.8236H231.573V26.3989H235.505V45.7358H241.166V26.442H249.635V38.7434C249.635 43.7935 252.012 46.3401 256.765 46.3401C257.543 46.3401 258.364 46.2106 259.142 46.0811C259.963 45.9085 260.568 45.6926 260.914 45.52L260.957 45.4768V40.8584L260.741 41.0311C260.395 41.2469 260.092 41.4195 259.574 41.549C259.142 41.6785 258.753 41.7217 258.45 41.7217C257.327 41.7217 256.549 41.4627 255.987 40.8152C255.469 40.211 255.21 39.2182 255.21 37.7507V26.442H260.957Z" fill="#363636"/>
<path d="M0 1.27808H26.4889V27.7369H0V1.27808Z" fill="#363636"/>
<path d="M29.2545 1.27808H55.7434V27.7369H29.2545V1.27808Z" fill="#363636"/>
<path d="M0 30.4993H26.4889V56.9581H0V30.4993Z" fill="#363636"/>
<path d="M29.2545 30.4993H55.7434V56.9581H29.2545V30.4993Z" fill="#363636"/>
</g>
<defs>
<clipPath id="clip0_2283_6307">
<rect width="261" height="55.68" fill="white" transform="translate(0 1.27808)"/>
</clipPath>
</defs>
</svg>
