<svg width="153" height="60" viewBox="0 0 153 60" fill="none" xmlns="http://www.w3.org/2000/svg">
<g clip-path="url(#clip0_2281_6258)">
<path d="M124.127 28.9373L138.669 56.3909H153L124.127 2.01367L95.36 56.2849H109.586L124.127 28.9373Z" fill="#363636"/>
<path d="M76.8142 43.5651V1.90771H64.2746V56.2849H88.6161L95.3601 43.5651H76.8142Z" fill="#363636"/>
<path d="M28.8688 0C23.1786 0 17.5937 1.69597 12.8519 4.87593C8.11 8.05588 4.42189 12.6138 2.20903 17.9137C-0.00383908 23.3197 -0.530712 29.1496 0.523034 34.7675C1.68215 40.4914 4.42189 45.6853 8.42612 49.7133C12.4304 53.7412 17.5937 56.6032 23.1786 57.6631C28.7634 58.8291 34.559 58.1931 39.8277 55.9672C45.0965 53.7412 49.6276 50.0313 52.7888 45.2613C55.95 40.4914 57.636 34.8735 57.636 29.0436C57.636 21.3057 54.5802 13.8858 49.2061 8.47987C43.832 3.07395 36.4558 0 28.8688 0ZM28.8688 44.8373C25.8129 44.8373 22.7571 43.8833 20.2281 42.1874C17.6991 40.4914 15.697 38.0534 14.5378 35.1915C13.3787 32.3295 13.0626 29.1496 13.5895 26.0756C14.2217 23.0017 15.697 20.2457 17.8045 18.0197C20.0173 15.7938 22.7571 14.3098 25.7076 13.6738C28.7634 13.0378 31.8193 13.3558 34.6644 14.5218C37.5095 15.6878 39.9331 17.7017 41.6191 20.3517C43.3051 22.8957 44.2535 25.9696 44.2535 29.0436C44.2535 33.1775 42.5675 37.2054 39.7224 40.1734C36.8773 43.2474 32.873 44.8373 28.8688 44.8373Z" fill="#363636"/>
</g>
<defs>
<clipPath id="clip0_2281_6258">
<rect width="153" height="59.16" fill="white"/>
</clipPath>
</defs>
</svg>
